<?xml version="1.0" standalone="no"?>
<!DOCTYPE svg PUBLIC "-//W3C//DTD SVG 20010904//EN"
 "http://www.w3.org/TR/2001/REC-SVG-20010904/DTD/svg10.dtd">
<svg version="1.0" xmlns="http://www.w3.org/2000/svg"
 width="260.000000pt" height="260.000000pt" viewBox="0 0 260.000000 260.000000"
 preserveAspectRatio="xMidYMid meet">
<metadata>
Created by potrace 1.14, written by Peter Selinger 2001-2017
</metadata>
<g transform="translate(0.000000,260.000000) scale(0.100000,-0.100000)"
fill="#000000" stroke="none">
<path d="M1293 2364 c-6 -3 -103 -128 -215 -277 -112 -150 -207 -277 -213
-283 -5 -6 -35 -45 -65 -87 -30 -43 -57 -77 -60 -77 -5 0 -110 64 -437 264
-78 48 -147 85 -153 81 -10 -6 -8 -79 4 -142 2 -10 7 -40 10 -68 4 -27 11 -86
17 -130 15 -113 16 -115 34 -260 9 -71 19 -143 22 -160 2 -16 6 -46 8 -65 2
-19 6 -51 9 -70 2 -19 7 -57 11 -85 3 -27 8 -61 10 -75 4 -25 10 -67 20 -145
16 -130 26 -204 30 -235 3 -19 8 -57 11 -85 3 -27 7 -61 10 -75 2 -14 6 -47
10 -75 3 -27 12 -57 20 -65 13 -13 130 -15 916 -15 600 0 908 3 922 10 21 10
26 30 41 155 3 25 7 54 9 65 2 11 7 49 11 85 4 36 9 72 10 81 2 9 6 40 10 70
4 30 9 65 10 79 20 152 48 361 50 385 2 17 6 46 9 65 3 19 13 89 21 155 9 66
17 134 20 150 2 17 9 68 15 115 19 151 21 165 26 194 13 80 14 134 1 139 -8 3
-141 -73 -296 -168 -254 -157 -311 -185 -311 -155 0 5 -6 15 -13 22 -7 7 -126
165 -265 351 -139 185 -253 337 -255 336 -1 0 -7 -3 -14 -5z m266 -658 l251
-334 147 90 c82 49 159 98 173 107 46 33 90 52 85 39 -2 -7 -6 -31 -9 -53 -2
-22 -12 -96 -21 -165 -9 -69 -18 -140 -21 -159 -2 -19 -6 -46 -9 -60 -2 -14
-7 -51 -10 -81 -3 -30 -15 -118 -25 -195 -10 -77 -22 -165 -26 -195 -3 -30 -8
-62 -9 -71 -2 -9 -6 -40 -10 -70 -9 -80 -15 -113 -21 -119 -10 -9 -1505 -7
-1510 2 -3 5 -8 21 -10 36 -2 15 -8 61 -14 102 -9 70 -13 99 -26 210 -3 25 -7
56 -9 70 -2 14 -13 99 -25 190 -11 91 -23 176 -25 190 -2 14 -9 66 -15 115 -6
50 -13 101 -16 115 -2 14 -7 53 -10 88 l-7 63 202 -125 201 -125 118 157 c64
86 121 162 127 169 5 6 66 88 135 181 69 93 128 168 131 166 4 -2 120 -154
258 -338z"/>
<path d="M1230 1300 c-98 -21 -175 -82 -221 -176 -62 -126 -39 -270 60 -370
176 -177 474 -100 544 141 67 232 -145 456 -383 405z m136 -196 c44 -21 79
-91 71 -141 -12 -74 -64 -118 -137 -118 -153 1 -191 204 -50 267 27 12 81 8
116 -8z"/>
</g>
</svg>
